<?xml version="1.0" encoding="iso-8859-1"?>
<!-- Generator: Adobe Illustrator 19.0.0, SVG Export Plug-In . SVG Version: 6.00 Build 0)  -->
<svg version="1.1" id="Capa_1" xmlns="http://www.w3.org/2000/svg" xmlns:xlink="http://www.w3.org/1999/xlink" x="0px" y="0px"
	 viewBox="0 0 512 512" style="enable-background:new 0 0 512 512;" xml:space="preserve">
<g>
	<g>
		<g>
			<path d="M477.867,187.733h-1.995c-8.492-27.429-21.817-52.455-38.998-74.186c-0.037-0.038-0.057-0.089-0.094-0.126
				C393.984,59.372,327.907,25.6,256,25.6S118.016,59.372,75.221,113.421c-0.037,0.037-0.057,0.088-0.094,0.126
				c-17.182,21.731-30.506,46.757-38.998,74.186h-1.995C15.313,187.733,0,203.046,0,221.867v68.267
				c0,18.821,15.313,34.133,34.133,34.133h1.995c8.492,27.429,21.817,52.455,38.998,74.186c0.037,0.038,0.057,0.089,0.094,0.126
				C118.016,452.628,184.093,486.4,256,486.4s137.984-33.772,180.779-87.821c0.037-0.037,0.057-0.088,0.094-0.126
				c17.182-21.731,30.506-46.757,38.998-74.186h1.995c18.821,0,34.133-15.312,34.133-34.133v-68.267
				C512,203.046,496.688,187.733,477.867,187.733z M426.401,128c13.452,17.836,24.184,37.902,31.547,59.733h-96.034
				c-3.132-21.62-7.6-41.678-13.279-59.733H426.401z M412.182,110.933h-69.428c-10.181-26.579-23.152-47.762-37.925-62.458
				C346.271,58.285,383.59,80.254,412.182,110.933z M264.533,43.695c22.698,5.044,43.938,29.866,59.525,67.239h-59.525V43.695z
				 M264.533,128h65.903c6.077,17.918,10.929,38.013,14.229,59.733h-80.132V128z M247.467,43.695v67.239h-59.525
				C203.529,73.561,224.769,48.739,247.467,43.695z M247.467,128v59.733h-80.132c3.301-21.72,8.153-41.815,14.229-59.733H247.467z
				 M207.171,48.476c-14.773,14.696-27.744,35.879-37.925,62.458H99.818C128.41,80.254,165.729,58.285,207.171,48.476z M85.599,128
				h77.766c-5.679,18.056-10.147,38.113-13.279,59.733H54.052C61.415,165.902,72.148,145.836,85.599,128z M85.599,384
				c-13.452-17.836-24.184-37.902-31.547-59.733h96.034c3.132,21.62,7.6,41.678,13.279,59.733H85.599z M99.818,401.067h69.428
				c10.181,26.579,23.152,47.762,37.925,62.458C165.729,453.715,128.41,431.746,99.818,401.067z M247.467,468.305
				c-22.698-5.044-43.938-29.866-59.525-67.239h59.525V468.305z M247.467,384h-65.903c-6.077-17.918-10.929-38.013-14.229-59.733
				h80.132V384z M264.533,468.305v-67.239h59.525C308.471,438.439,287.231,463.261,264.533,468.305z M264.533,384v-59.733h80.132
				c-3.3,21.72-8.153,41.815-14.229,59.733H264.533z M304.829,463.524c14.773-14.696,27.744-35.879,37.925-62.458h69.428
				C383.59,431.746,346.271,453.715,304.829,463.524z M426.401,384h-77.766c5.679-18.056,10.147-38.113,13.279-59.733h96.034
				C450.585,346.098,439.852,366.164,426.401,384z M494.933,290.133c0,9.413-7.654,17.067-17.067,17.067H34.133
				c-9.413,0-17.067-7.654-17.067-17.067v-68.267c0-9.413,7.654-17.067,17.067-17.067h435.512c0.009,0,0.017,0.004,0.026,0.004
				c0.01,0,0.02-0.004,0.03-0.004h8.166c9.413,0,17.067,7.654,17.067,17.067V290.133z"/>
			<path d="M173.367,222.304c-4.483-1.508-9.308,0.929-10.796,5.396l-11.2,33.6l-16.054-26.758c-3.083-5.142-11.55-5.142-14.633,0
				L104.629,261.3l-11.2-33.6c-1.488-4.467-6.304-6.904-10.796-5.396c-4.471,1.492-6.888,6.325-5.396,10.796l17.067,51.2
				c1.054,3.158,3.854,5.421,7.167,5.783c3.267,0.346,6.529-1.238,8.246-4.092L128,255.521l18.283,30.471
				c1.554,2.587,4.342,4.142,7.317,4.142c0.308,0,0.621-0.017,0.929-0.05c3.312-0.363,6.112-2.625,7.167-5.783l17.067-51.2
				C180.254,228.629,177.837,223.796,173.367,222.304z"/>
			<path d="M301.367,222.304c-4.496-1.508-9.308,0.929-10.796,5.396l-11.2,33.6l-16.054-26.758c-3.083-5.142-11.55-5.142-14.633,0
				L232.629,261.3l-11.2-33.6c-1.492-4.467-6.313-6.904-10.796-5.396c-4.471,1.492-6.888,6.325-5.396,10.796l17.067,51.2
				c1.054,3.158,3.854,5.421,7.167,5.783c3.271,0.346,6.529-1.238,8.246-4.092L256,255.521l18.283,30.471
				c1.554,2.587,4.342,4.142,7.317,4.142c0.308,0,0.621-0.017,0.929-0.05c3.312-0.363,6.112-2.625,7.167-5.783l17.067-51.2
				C308.254,228.629,305.837,223.796,301.367,222.304z"/>
			<path d="M429.367,222.304c-4.483-1.508-9.308,0.929-10.796,5.396l-11.2,33.6l-16.054-26.758c-3.083-5.142-11.55-5.142-14.633,0
				L360.629,261.3l-11.2-33.6c-1.488-4.467-6.304-6.904-10.796-5.396c-4.471,1.492-6.888,6.325-5.396,10.796l17.067,51.2
				c1.054,3.158,3.854,5.421,7.167,5.783c3.275,0.346,6.529-1.238,8.246-4.092L384,255.521l18.283,30.471
				c1.554,2.587,4.342,4.142,7.317,4.142c0.308,0,0.621-0.017,0.929-0.05c3.312-0.363,6.112-2.625,7.167-5.783l17.067-51.2
				C436.254,228.629,433.837,223.796,429.367,222.304z"/>
		</g>
	</g>
</g>
<g>
</g>
<g>
</g>
<g>
</g>
<g>
</g>
<g>
</g>
<g>
</g>
<g>
</g>
<g>
</g>
<g>
</g>
<g>
</g>
<g>
</g>
<g>
</g>
<g>
</g>
<g>
</g>
<g>
</g>
</svg>
