<svg id="Layer_1" viewBox="0 0 512 512" xmlns="http://www.w3.org/2000/svg"><path d="m497.302 184.316-51.162 13.711c-.432.119-.87.169-1.293.169-2.21 0-4.228-1.47-4.83-3.709-.71-2.66.87-5.41 3.541-6.121l51.162-13.709c2.671-.711 5.399.871 6.118 3.54.71 2.669-.87 5.41-3.536 6.119zm-10.802 102.771c-.922 1.609-2.601 2.5-4.331 2.5-.851 0-1.707-.209-2.497-.67l-45.862-26.479c-2.398-1.381-3.221-4.44-1.829-6.83 1.369-2.39 4.43-3.22 6.828-1.831l45.862 26.481c2.389 1.379 3.207 4.44 1.829 6.83zm-85.831-148.329 26.481-45.871c1.378-2.39 4.43-3.211 6.829-1.83 2.389 1.38 3.207 4.44 1.829 6.83l-26.477 45.869c-.931 1.6-2.61 2.5-4.341 2.5-.851 0-1.712-.22-2.492-.669-2.399-1.381-3.217-4.442-1.829-6.83zm-26.5 101.828-14.231-53.09 29.411.261 10.149 37.9zm-207.13 74.98-23.961-89.439c66.319-22.29 120.641-61.561 148.5-106.991l57.572 214.841c-46.849-25.421-113.521-32.281-182.111-18.411zm6.321 98.45c2.21 3.821 2.789 8.281 1.641 12.571-1.152 4.289-3.889 7.87-7.703 10.069-7.91 4.571-18.068 1.852-22.639-6.07l-49.549-85.819c4.402-1.231 8.766-2.48 13.06-3.71 6.541-1.87 13.168-3.76 19.841-5.599zm224.671-232.52c-.593-2.17-2.539-3.679-4.792-3.699l-35.981-.32-25.837-96.43c-3.452-12.87-16.732-20.531-29.599-17.09-12.872 3.45-20.542 16.73-17.095 29.6l3.175 11.84c-25.264 48.029-82.04 90.079-152.403 112.709-18.426 5.93-37.608 10.73-56.156 15.38-9.34 2.34-18.99 4.75-28.452 7.291-29.35 7.859-45.97 37.78-37.839 68.119 6.819 25.461 28.588 41.95 52.761 41.95 4.627 0 9.349-.61 14.066-1.87 1.763-.47 3.522-.959 5.281-1.441l50.842 88.051c3.536 6.13 9.269 10.52 16.14 12.359 2.309.621 4.637.92 6.96.92 4.599 0 9.128-1.2 13.196-3.549 6.132-3.54 10.511-9.271 12.35-16.14 1.853-6.871.912-14.031-2.624-20.161l-44.032-76.27c8.799-2.339 17.659-4.55 26.5-6.45 72.249-15.58 142.448-7.55 188.338 21.42l3.17 11.83c1.66 6.211 5.672 11.421 11.273 14.651 3.739 2.16 7.877 3.27 12.067 3.27 2.093 0 4.19-.279 6.264-.831 6.208-1.67 11.418-5.669 14.658-11.27 3.226-5.61 4.092-12.119 2.432-18.33l-25.842-96.429 31.011-18.26c1.928-1.141 2.869-3.441 2.29-5.611l-12.119-45.24z" fill-rule="evenodd"/></svg>