<svg id="svg8" height="512" viewBox="0 0 8.4666665 8.4666669" width="512" xmlns="http://www.w3.org/2000/svg" xmlns:svg="http://www.w3.org/2000/svg"><g id="layer1" transform="translate(0 -288.533)"><path id="path825" d="m14.003906 1.0039062c-7.1678563 0-13.00781225 5.8321643-13.00781225 12.9999998-.00000004 7.167874 5.83995595 12.998047 13.00781225 12.998047 3.223336 0 6.169259-1.186935 8.44336-3.136719l1.136718 1.136719-.707031.707031a1.0001 1.0001 0 0 0 0 1.414063l2.998047 3c.655905.656315 1.499699.974943 2.283203.939453.783504-.034016 1.48242-.386186 1.998047-.900391.515627-.514204.867375-1.210682.904297-1.99414.036926-.783496-.281594-1.628804-.9375-2.285157l-3.001953-3.003906a1.0001 1.0001 0 0 0 -.720703-.292968 1.0001 1.0001 0 0 0 -.69336.292968l-.708984.708985-1.134766-1.134766c1.952396-2.274779 3.140625-5.223468 3.140625-8.449219.000001-7.1678355-5.832143-12.9999998-13-12.9999998zm0 1.9921876c6.086977 0 10.998047 4.9208459 10.998047 11.0078122 0 6.086967-4.91107 10.998047-10.998047 10.998047-6.0869761 0-11.0078123-4.91108-11.0078122-10.998047 0-6.0869663 4.9208361-11.0078123 11.0078122-11.0078122zm1.992188 6.0019531a1.000252 1.000252 0 1 0 0 2.0000001h1.595703l-3.595703 3.595703-1.291016-1.298828c-.390053-.387628-1.020103-.387628-1.410156 0l-4.0019532 4c-1.002059.944542.4786922 2.417136 1.4179687 1.410156l3.2929685-3.292969 1.291016 1.292969c.390053.387628 1.020103.387628 1.410156 0l4.296875-4.291016v1.589844a1.0002459 1.0002459 0 1 0 2 0v-4.001953a1.0001001 1.0001001 0 0 0 -1.003906-1.0039061zm10.417968 16.0019531 2.294922 2.296875c.31129.311433.364371.545066.353516.775391-.010847.230173-.12549.481488-.318359.673828-.19287.192378-.444317.308154-.675782.318359-.231465.011339-.468009-.044036-.779297-.355469l-2.291015-2.292968z" transform="matrix(.265 0 0 .265 0 288.533)" font-variant-ligatures="normal" font-variant-position="normal" font-variant-caps="normal" font-variant-numeric="normal" font-variant-alternates="normal" font-feature-settings="normal" text-indent="0" text-align="start" text-decoration-line="none" text-decoration-style="solid" text-decoration-color="rgb(0,0,0)" text-transform="none" text-orientation="mixed" white-space="normal" shape-padding="0" isolation="auto" mix-blend-mode="normal" solid-color="rgb(0,0,0)" solid-opacity="1" vector-effect="none"/></g></svg>