<svg id="Layer_1" enable-background="new 0 0 1024 1024" viewBox="0 0 1024 1024" xmlns="http://www.w3.org/2000/svg"><g id="XMLID_16_"><path d="m720 941.5c-35.2 0-69.6-10.8-99.1-31.4-37.9-26.6-63.2-66.3-71.3-111.9-11-62.4 12.9-125.8 62.4-165.5l25 31.2c-38.1 30.5-56.5 79.3-48 127.3 6.2 35.1 25.7 65.7 54.8 86.1 29.2 20.4 64.5 28.3 99.6 22.1l6.9 39.4c-10 1.8-20.2 2.7-30.3 2.7z"/><path d="m829 903.2-25-31.2c37.9-30.5 56.2-79.2 47.8-127-12.8-72.4-82-121-154.4-108.2l-6.9-39.4c94.1-16.6 184.2 46.5 200.8 140.6 10.8 62.2-13 125.5-62.3 165.2z"/><path d="m890.3 909.6h-95.5v-95.5h40v55.5h55.5z"/><path d="m646 722.1h-40v-55.5h-55.6v-40h95.6z"/><path d="m586.7 861.7h-415c-23.2 0-42-18.9-42-42.1v-695c0-23.2 18.8-42.1 42-42.1h445.6c13.4 0 26 5.2 35.5 14.8l156.5 156.6c9.5 9.5 14.8 22.1 14.8 35.5v351h-40v-351c0-2.8-1.1-5.3-3-7.3l-156.5-156.6c-1.9-1.9-4.6-3-7.3-3h-445.6c-1.1 0-2 1-2 2.1v695c0 1.2.9 2.1 2 2.1h415z"/><path d="m793 285.8h-130.1c-23.2 0-42.1-18.9-42.1-42.1v-130.1h40v130.1c0 1.2.9 2.1 2.1 2.1h130.1z"/><path d="m490.2 747.3h-247.4v-120.9l95.7-95 75.5 75.1 187.6-186.7 93.4 92.4-28.2 28.4-65.2-64.4-187.6 186.7-75.5-75.1-55.7 55.2v64.3h207.4z"/><path d="m356.6 444.3c-38.3 0-69.4-31.1-69.4-69.4s31.1-69.4 69.4-69.4 69.4 31.1 69.4 69.4-31.1 69.4-69.4 69.4zm0-98.8c-16.2 0-29.4 13.2-29.4 29.4s13.2 29.4 29.4 29.4 29.4-13.2 29.4-29.4-13.2-29.4-29.4-29.4z"/></g></svg>